<?xml version="1.0" encoding="UTF-8"?>
<svg xmlns="http://www.w3.org/2000/svg" xmlns:xlink="http://www.w3.org/1999/xlink" viewBox="0 0 64 64" width="64px" height="64px">
<g id="surface454394">
<path style=" stroke:none;fill-rule:nonzero;fill:rgb(37.64706%,37.64706%,37.64706%);fill-opacity:1;" d="M 32 3 C 16 3 3 16 3 32 C 3 48 16 61 32 61 C 48 61 61 48 61 32 C 61 16 48 3 32 3 Z M 32 6 C 46.351562 6 58 17.648438 58 32 C 58 46.351562 46.351562 58 32 58 C 17.648438 58 6 46.351562 6 32 C 6 17.648438 17.648438 6 32 6 Z M 42.519531 24.476562 C 42.136719 24.488281 41.75 24.648438 41.449219 24.949219 L 31 35.800781 L 25.550781 29.949219 C 25 29.351562 24.050781 29.300781 23.449219 29.851562 C 22.851562 30.398438 22.800781 31.351562 23.351562 31.949219 L 29.898438 39 C 30.199219 39.300781 30.550781 39.5 31 39.5 C 31.398438 39.5 31.800781 39.351562 32.101562 39.050781 L 43.601562 27 C 44.148438 26.398438 44.148438 25.449219 43.550781 24.898438 C 43.273438 24.601562 42.898438 24.460938 42.519531 24.476562 Z M 42.519531 24.476562 "/>
</g>
</svg>
